<mxfile host="app.diagrams.net" modified="2023-01-25T22:43:53.705Z" agent="5.0 (Windows NT 10.0; Win64; x64) AppleWebKit/537.36 (KHTML, like Gecko) Chrome/109.0.0.0 Safari/537.36 Edg/109.0.1518.61" etag="MZvZ5B0PLzSeqgyC2GVf" version="20.8.10" type="github">
  <diagram name="PÃ¡gina-1" id="Mp_DPlooJwKoYHONc5s7">
    <mxGraphModel dx="1454" dy="661" grid="1" gridSize="10" guides="1" tooltips="1" connect="1" arrows="1" fold="1" page="1" pageScale="1" pageWidth="827" pageHeight="1169" math="0" shadow="0">
      <root>
        <mxCell id="0" />
        <mxCell id="1" parent="0" />
        <mxCell id="1JzTScTb7qDcx-TYomy3-1" value="compras" style="whiteSpace=wrap;html=1;align=center;" vertex="1" parent="1">
          <mxGeometry x="1040" y="480" width="100" height="40" as="geometry" />
        </mxCell>
        <mxCell id="1JzTScTb7qDcx-TYomy3-2" value="productos" style="whiteSpace=wrap;html=1;align=center;" vertex="1" parent="1">
          <mxGeometry x="460" y="20" width="100" height="40" as="geometry" />
        </mxCell>
        <mxCell id="1JzTScTb7qDcx-TYomy3-3" value="ventas" style="whiteSpace=wrap;html=1;align=center;" vertex="1" parent="1">
          <mxGeometry x="680" y="450" width="100" height="40" as="geometry" />
        </mxCell>
        <mxCell id="1JzTScTb7qDcx-TYomy3-4" value="proveedores" style="whiteSpace=wrap;html=1;align=center;" vertex="1" parent="1">
          <mxGeometry x="20" y="20" width="100" height="40" as="geometry" />
        </mxCell>
        <mxCell id="1JzTScTb7qDcx-TYomy3-5" value="clientes" style="whiteSpace=wrap;html=1;align=center;" vertex="1" parent="1">
          <mxGeometry x="610" y="20" width="100" height="40" as="geometry" />
        </mxCell>
        <mxCell id="1JzTScTb7qDcx-TYomy3-6" value="categoria_productos" style="whiteSpace=wrap;html=1;align=center;" vertex="1" parent="1">
          <mxGeometry x="300" y="20" width="130" height="40" as="geometry" />
        </mxCell>
        <mxCell id="1JzTScTb7qDcx-TYomy3-7" value="stock" style="whiteSpace=wrap;html=1;align=center;" vertex="1" parent="1">
          <mxGeometry x="1030" y="80" width="100" height="40" as="geometry" />
        </mxCell>
        <mxCell id="1JzTScTb7qDcx-TYomy3-12" value="id_proveedor" style="ellipse;whiteSpace=wrap;html=1;align=center;" vertex="1" parent="1">
          <mxGeometry x="20" y="60" width="100" height="40" as="geometry" />
        </mxCell>
        <mxCell id="1JzTScTb7qDcx-TYomy3-13" value="cuit" style="ellipse;whiteSpace=wrap;html=1;align=center;" vertex="1" parent="1">
          <mxGeometry x="20" y="100" width="100" height="40" as="geometry" />
        </mxCell>
        <mxCell id="1JzTScTb7qDcx-TYomy3-14" value="razon_social" style="ellipse;whiteSpace=wrap;html=1;align=center;" vertex="1" parent="1">
          <mxGeometry x="20" y="140" width="100" height="40" as="geometry" />
        </mxCell>
        <mxCell id="1JzTScTb7qDcx-TYomy3-15" value="nombre_fantasia" style="ellipse;whiteSpace=wrap;html=1;align=center;" vertex="1" parent="1">
          <mxGeometry x="20" y="180" width="100" height="40" as="geometry" />
        </mxCell>
        <mxCell id="1JzTScTb7qDcx-TYomy3-16" value="condicion_iva" style="ellipse;whiteSpace=wrap;html=1;align=center;" vertex="1" parent="1">
          <mxGeometry x="20" y="220" width="100" height="40" as="geometry" />
        </mxCell>
        <mxCell id="1JzTScTb7qDcx-TYomy3-17" value="iibb" style="ellipse;whiteSpace=wrap;html=1;align=center;" vertex="1" parent="1">
          <mxGeometry x="20" y="260" width="100" height="40" as="geometry" />
        </mxCell>
        <mxCell id="1JzTScTb7qDcx-TYomy3-18" value="id_jurisdiccion" style="ellipse;whiteSpace=wrap;html=1;align=center;" vertex="1" parent="1">
          <mxGeometry x="20" y="300" width="100" height="40" as="geometry" />
        </mxCell>
        <mxCell id="1JzTScTb7qDcx-TYomy3-19" value="domicilio" style="ellipse;whiteSpace=wrap;html=1;align=center;" vertex="1" parent="1">
          <mxGeometry x="20" y="340" width="100" height="40" as="geometry" />
        </mxCell>
        <mxCell id="1JzTScTb7qDcx-TYomy3-20" value="jurisdicciones_iibb" style="whiteSpace=wrap;html=1;align=center;" vertex="1" parent="1">
          <mxGeometry x="168" y="20" width="100" height="40" as="geometry" />
        </mxCell>
        <mxCell id="1JzTScTb7qDcx-TYomy3-21" value="id_jurisdiccion" style="ellipse;whiteSpace=wrap;html=1;align=center;" vertex="1" parent="1">
          <mxGeometry x="168" y="60" width="100" height="40" as="geometry" />
        </mxCell>
        <mxCell id="1JzTScTb7qDcx-TYomy3-22" value="nombre" style="ellipse;whiteSpace=wrap;html=1;align=center;" vertex="1" parent="1">
          <mxGeometry x="168" y="100" width="100" height="40" as="geometry" />
        </mxCell>
        <mxCell id="1JzTScTb7qDcx-TYomy3-23" value="telefono" style="ellipse;whiteSpace=wrap;html=1;align=center;" vertex="1" parent="1">
          <mxGeometry x="20" y="380" width="100" height="40" as="geometry" />
        </mxCell>
        <mxCell id="1JzTScTb7qDcx-TYomy3-24" value="nombre_contacto" style="ellipse;whiteSpace=wrap;html=1;align=center;" vertex="1" parent="1">
          <mxGeometry x="20" y="420" width="100" height="40" as="geometry" />
        </mxCell>
        <mxCell id="1JzTScTb7qDcx-TYomy3-25" value="email" style="ellipse;whiteSpace=wrap;html=1;align=center;" vertex="1" parent="1">
          <mxGeometry x="20" y="460" width="100" height="40" as="geometry" />
        </mxCell>
        <mxCell id="1JzTScTb7qDcx-TYomy3-27" value="id_catProducto" style="ellipse;whiteSpace=wrap;html=1;align=center;" vertex="1" parent="1">
          <mxGeometry x="314" y="60" width="100" height="40" as="geometry" />
        </mxCell>
        <mxCell id="1JzTScTb7qDcx-TYomy3-28" value="nombre" style="ellipse;whiteSpace=wrap;html=1;align=center;" vertex="1" parent="1">
          <mxGeometry x="314" y="100" width="100" height="40" as="geometry" />
        </mxCell>
        <mxCell id="1JzTScTb7qDcx-TYomy3-29" value="id_producto" style="ellipse;whiteSpace=wrap;html=1;align=center;" vertex="1" parent="1">
          <mxGeometry x="460" y="60" width="100" height="40" as="geometry" />
        </mxCell>
        <mxCell id="1JzTScTb7qDcx-TYomy3-30" value="nombre" style="ellipse;whiteSpace=wrap;html=1;align=center;" vertex="1" parent="1">
          <mxGeometry x="460" y="100" width="100" height="40" as="geometry" />
        </mxCell>
        <mxCell id="1JzTScTb7qDcx-TYomy3-31" value="id_catProducto" style="ellipse;whiteSpace=wrap;html=1;align=center;" vertex="1" parent="1">
          <mxGeometry x="460" y="140" width="100" height="40" as="geometry" />
        </mxCell>
        <mxCell id="1JzTScTb7qDcx-TYomy3-32" value="precio" style="ellipse;whiteSpace=wrap;html=1;align=center;" vertex="1" parent="1">
          <mxGeometry x="460" y="180" width="100" height="40" as="geometry" />
        </mxCell>
        <mxCell id="1JzTScTb7qDcx-TYomy3-33" value="descripcion" style="ellipse;whiteSpace=wrap;html=1;align=center;" vertex="1" parent="1">
          <mxGeometry x="460" y="220" width="100" height="40" as="geometry" />
        </mxCell>
        <mxCell id="1JzTScTb7qDcx-TYomy3-34" value="id_proveedor" style="ellipse;whiteSpace=wrap;html=1;align=center;" vertex="1" parent="1">
          <mxGeometry x="460" y="260" width="100" height="40" as="geometry" />
        </mxCell>
        <mxCell id="1JzTScTb7qDcx-TYomy3-35" value="proveedor" style="whiteSpace=wrap;html=1;align=center;" vertex="1" parent="1">
          <mxGeometry x="20" y="820" width="100" height="40" as="geometry" />
        </mxCell>
        <mxCell id="1JzTScTb7qDcx-TYomy3-36" value="id_proveedor" style="ellipse;whiteSpace=wrap;html=1;align=center;" vertex="1" parent="1">
          <mxGeometry x="20" y="860" width="100" height="40" as="geometry" />
        </mxCell>
        <mxCell id="1JzTScTb7qDcx-TYomy3-37" value="nombre" style="ellipse;whiteSpace=wrap;html=1;align=center;" vertex="1" parent="1">
          <mxGeometry x="20" y="900" width="100" height="40" as="geometry" />
        </mxCell>
        <mxCell id="1JzTScTb7qDcx-TYomy3-38" value="juegos" style="whiteSpace=wrap;html=1;align=center;" vertex="1" parent="1">
          <mxGeometry x="150" y="820" width="100" height="40" as="geometry" />
        </mxCell>
        <mxCell id="1JzTScTb7qDcx-TYomy3-39" value="id_juego" style="ellipse;whiteSpace=wrap;html=1;align=center;" vertex="1" parent="1">
          <mxGeometry x="150" y="860" width="100" height="40" as="geometry" />
        </mxCell>
        <mxCell id="1JzTScTb7qDcx-TYomy3-40" value="nombre" style="ellipse;whiteSpace=wrap;html=1;align=center;" vertex="1" parent="1">
          <mxGeometry x="150" y="900" width="100" height="40" as="geometry" />
        </mxCell>
        <mxCell id="1JzTScTb7qDcx-TYomy3-41" value="ventas_x_sorteo" style="whiteSpace=wrap;html=1;align=center;" vertex="1" parent="1">
          <mxGeometry x="280" y="820" width="100" height="40" as="geometry" />
        </mxCell>
        <mxCell id="1JzTScTb7qDcx-TYomy3-42" value="id_sorteo" style="ellipse;whiteSpace=wrap;html=1;align=center;" vertex="1" parent="1">
          <mxGeometry x="280" y="860" width="100" height="40" as="geometry" />
        </mxCell>
        <mxCell id="1JzTScTb7qDcx-TYomy3-43" value="fecha" style="ellipse;whiteSpace=wrap;html=1;align=center;" vertex="1" parent="1">
          <mxGeometry x="280" y="940" width="100" height="40" as="geometry" />
        </mxCell>
        <mxCell id="1JzTScTb7qDcx-TYomy3-44" value="id_proveedor" style="ellipse;whiteSpace=wrap;html=1;align=center;" vertex="1" parent="1">
          <mxGeometry x="150" y="940" width="100" height="40" as="geometry" />
        </mxCell>
        <mxCell id="1JzTScTb7qDcx-TYomy3-45" value="comision" style="ellipse;whiteSpace=wrap;html=1;align=center;" vertex="1" parent="1">
          <mxGeometry x="150" y="980" width="100" height="40" as="geometry" />
        </mxCell>
        <mxCell id="1JzTScTb7qDcx-TYomy3-46" value="venta_disponible" style="ellipse;whiteSpace=wrap;html=1;align=center;" vertex="1" parent="1">
          <mxGeometry x="150" y="1020" width="100" height="40" as="geometry" />
        </mxCell>
        <mxCell id="1JzTScTb7qDcx-TYomy3-47" value="id_juego" style="ellipse;whiteSpace=wrap;html=1;align=center;" vertex="1" parent="1">
          <mxGeometry x="280" y="900" width="100" height="40" as="geometry" />
        </mxCell>
        <mxCell id="1JzTScTb7qDcx-TYomy3-48" value="importe_vendido" style="ellipse;whiteSpace=wrap;html=1;align=center;" vertex="1" parent="1">
          <mxGeometry x="280" y="980" width="100" height="40" as="geometry" />
        </mxCell>
        <mxCell id="1JzTScTb7qDcx-TYomy3-51" value="tipos_gastos" style="whiteSpace=wrap;html=1;align=center;" vertex="1" parent="1">
          <mxGeometry x="410" y="820" width="100" height="40" as="geometry" />
        </mxCell>
        <mxCell id="1JzTScTb7qDcx-TYomy3-52" value="id_t_gasto" style="ellipse;whiteSpace=wrap;html=1;align=center;" vertex="1" parent="1">
          <mxGeometry x="410" y="860" width="100" height="40" as="geometry" />
        </mxCell>
        <mxCell id="1JzTScTb7qDcx-TYomy3-53" value="descripcion" style="ellipse;whiteSpace=wrap;html=1;align=center;" vertex="1" parent="1">
          <mxGeometry x="410" y="940" width="100" height="40" as="geometry" />
        </mxCell>
        <mxCell id="1JzTScTb7qDcx-TYomy3-54" value="nombre" style="ellipse;whiteSpace=wrap;html=1;align=center;" vertex="1" parent="1">
          <mxGeometry x="410" y="900" width="100" height="40" as="geometry" />
        </mxCell>
        <mxCell id="1JzTScTb7qDcx-TYomy3-56" value="registro_gasto" style="whiteSpace=wrap;html=1;align=center;" vertex="1" parent="1">
          <mxGeometry x="730" y="830" width="100" height="40" as="geometry" />
        </mxCell>
        <mxCell id="1JzTScTb7qDcx-TYomy3-57" value="id_sorteo" style="ellipse;whiteSpace=wrap;html=1;align=center;" vertex="1" parent="1">
          <mxGeometry x="730" y="870" width="100" height="40" as="geometry" />
        </mxCell>
        <mxCell id="1JzTScTb7qDcx-TYomy3-58" value="fecha" style="ellipse;whiteSpace=wrap;html=1;align=center;" vertex="1" parent="1">
          <mxGeometry x="730" y="950" width="100" height="40" as="geometry" />
        </mxCell>
        <mxCell id="1JzTScTb7qDcx-TYomy3-59" value="id_juego" style="ellipse;whiteSpace=wrap;html=1;align=center;" vertex="1" parent="1">
          <mxGeometry x="730" y="910" width="100" height="40" as="geometry" />
        </mxCell>
        <mxCell id="1JzTScTb7qDcx-TYomy3-60" value="cant_vendida" style="ellipse;whiteSpace=wrap;html=1;align=center;" vertex="1" parent="1">
          <mxGeometry x="730" y="990" width="100" height="40" as="geometry" />
        </mxCell>
        <mxCell id="1JzTScTb7qDcx-TYomy3-61" value="id_cliente" style="ellipse;whiteSpace=wrap;html=1;align=center;" vertex="1" parent="1">
          <mxGeometry x="610" y="60" width="100" height="40" as="geometry" />
        </mxCell>
        <mxCell id="1JzTScTb7qDcx-TYomy3-62" value="dni" style="ellipse;whiteSpace=wrap;html=1;align=center;" vertex="1" parent="1">
          <mxGeometry x="610" y="100" width="100" height="40" as="geometry" />
        </mxCell>
        <mxCell id="1JzTScTb7qDcx-TYomy3-63" value="nombre" style="ellipse;whiteSpace=wrap;html=1;align=center;" vertex="1" parent="1">
          <mxGeometry x="610" y="140" width="100" height="40" as="geometry" />
        </mxCell>
        <mxCell id="1JzTScTb7qDcx-TYomy3-64" value="telefono" style="ellipse;whiteSpace=wrap;html=1;align=center;" vertex="1" parent="1">
          <mxGeometry x="610" y="180" width="100" height="40" as="geometry" />
        </mxCell>
        <mxCell id="1JzTScTb7qDcx-TYomy3-65" value="email" style="ellipse;whiteSpace=wrap;html=1;align=center;" vertex="1" parent="1">
          <mxGeometry x="610" y="220" width="100" height="40" as="geometry" />
        </mxCell>
      </root>
    </mxGraphModel>
  </diagram>
</mxfile>
